<svg width="76" height="96" viewBox="0 0 76 96" fill="none" xmlns="http://www.w3.org/2000/svg">
<path d="M39.9958 32.0715C37.6815 29.7488 34.8638 27.9135 31.7312 26.7221C30.2522 28.3658 29.2452 30.3668 28.8246 32.5365C28.7102 33.1215 28.6416 33.708 28.6101 34.2917C28.8675 34.3802 29.1193 34.4747 29.3655 34.5819C32.0946 35.739 34.4376 37.6759 36.0795 40.116C37.3982 42.0669 38.2737 44.3256 38.5684 46.773C38.6457 47.3837 38.6828 48.006 38.6828 48.6411C38.6828 50.7609 38.2566 52.7578 37.4871 54.5799C36.5316 56.8271 35.0526 58.8152 33.196 60.3615C32.8013 60.6947 32.3863 61.0039 31.9573 61.2941C29.5172 62.9419 26.605 63.8974 23.4266 63.8974C21.3126 63.8974 19.3187 63.4697 17.4936 62.7015C14.7587 61.5444 12.4243 59.6063 10.7766 57.1674C9.13446 54.7314 8.17896 51.8122 8.17896 48.6411C8.17896 46.5227 8.59952 44.5288 9.37183 42.7022C10.4104 40.2506 12.0838 38.1109 14.1865 36.5132C14.1463 35.9595 14.1291 35.406 14.1291 34.8525C14.1291 32.0091 14.5753 29.2341 15.4251 26.6107C12.1723 27.7937 9.25446 29.6745 6.8629 32.0719C2.62333 36.2987 -0.00860387 42.1817 2.11337e-05 48.6413C-0.00841637 55.1023 2.62352 60.9853 6.8629 65.2134C10.393 68.7491 15.0731 71.1564 20.2796 71.8558V79.1593H9.42321V85.4499H20.2796V96H26.5733V85.4497H37.4383V79.1591H26.5733V71.8556C31.7828 71.1562 36.4686 68.7489 39.9958 65.2132C41.1745 64.0346 42.2245 62.733 43.1368 61.3241C45.4969 57.6696 46.8673 53.3027 46.8615 48.6411C46.8615 47.547 46.7843 46.4642 46.6412 45.4086C45.9233 40.2304 43.5145 35.5817 39.9958 32.0715Z" fill="#F8FBFA"/>
<path d="M55.2205 0V6.29081H64.821L54.9 16.2118C50.7233 13.0279 45.7028 11.4186 40.708 11.4231C34.7262 11.4186 28.7044 13.7143 24.1386 18.2887C20.8716 21.5471 18.772 25.5476 17.8335 29.7487C17.8221 29.8001 17.8165 29.8517 17.802 29.8946C17.7649 30.0578 17.7334 30.2222 17.7021 30.3782C17.6447 30.6814 17.5933 30.9832 17.5448 31.2849C17.5133 31.4666 17.4876 31.6569 17.4675 31.8384C17.4304 32.1146 17.3989 32.3978 17.376 32.6809C17.3618 32.844 17.3445 33.0086 17.3361 33.1716C17.3305 33.2531 17.3246 33.336 17.319 33.4234C17.3046 33.5878 17.299 33.7566 17.2931 33.9195C17.2817 34.2285 17.2731 34.5431 17.2731 34.8521C17.2731 35.091 17.2817 35.3299 17.2875 35.5744C17.299 35.8148 17.3134 36.0521 17.3246 36.2983L17.3618 36.8274C17.3618 36.9148 17.376 37.0033 17.3816 37.0978C17.8853 42.3242 20.1422 47.4336 24.1386 51.4228C26.5588 53.8446 29.3908 55.6296 32.4032 56.7696C33.3156 55.764 34.0596 54.5998 34.5945 53.3467C35.1465 52.0324 35.4613 50.6419 35.5242 49.2073C33.4789 48.4721 31.5679 47.2892 29.9202 45.6414C28.4297 44.1439 27.3141 42.4318 26.5731 40.5951C26.044 39.2976 25.7035 37.9389 25.5546 36.5685C25.4575 35.7574 25.4346 34.9393 25.4717 34.1284C25.4831 33.9266 25.4974 33.7322 25.5088 33.5363C25.5231 33.3919 25.5345 33.2473 25.5602 33.1014C25.5602 33.0456 25.5717 32.9899 25.5775 32.9327C25.5917 32.7939 25.609 32.6496 25.6346 32.5121C25.6661 32.3233 25.6976 32.1274 25.7348 31.9401C25.9005 31.0832 26.1381 30.2407 26.4527 29.4225C26.5101 29.2723 26.5671 29.1279 26.6359 28.9762C26.6989 28.8189 26.7673 28.6616 26.8418 28.5043C26.9048 28.347 26.9792 28.1895 27.0621 28.038C27.1307 27.8822 27.2136 27.7305 27.3025 27.5803C27.7172 26.8108 28.2066 26.07 28.7672 25.3646C28.8816 25.2202 29.0018 25.0759 29.1192 24.9369C29.3794 24.6409 29.6427 24.3519 29.9258 24.0688C30.2775 23.7169 30.6353 23.3893 31.0071 23.0874C32.2258 22.0748 33.5616 21.2809 34.9633 20.7159C37.7125 19.6018 40.7391 19.3185 43.6257 19.8791C46.515 20.4398 49.2497 21.8216 51.4984 24.0686C52.9947 25.5662 54.1017 27.2782 54.8427 29.1135C55.9641 31.8626 56.2474 34.8834 55.6866 37.7715C55.1202 40.6579 53.7355 43.3942 51.4984 45.6414C51.0064 46.1319 50.4915 46.5855 49.9566 46.9873C49.9879 47.5408 50.0052 48.0945 50.0052 48.6407C50.0138 51.4599 49.5645 54.2391 48.7035 56.8824C51.8361 55.7496 54.7738 53.9258 57.2772 51.4226C61.8458 46.8613 64.1487 40.8396 64.1428 34.8519C64.1485 29.8556 62.538 24.8437 59.3483 20.6599L69.2693 10.7389V20.3438H75.5599V0H55.2205Z" fill="#F8FBFA"/>
</svg>
