<svg width="96" height="47" viewBox="0 0 96 47" fill="none" xmlns="http://www.w3.org/2000/svg">
<path d="M96 23.2258C96 27.8194 94.6378 32.3099 92.0858 36.1293C89.5337 39.9488 85.9063 42.9257 81.6624 44.6836C77.4184 46.4415 72.7485 46.9015 68.2431 46.0053C63.7378 45.1091 59.5993 42.897 56.3512 39.6488C56.2848 39.5825 56.2205 39.5142 56.1584 39.4439L32.9866 13.2798C31.0275 11.3571 28.5441 10.0558 25.8481 9.53926C23.1521 9.02271 20.3636 9.3139 17.8325 10.3763C15.3014 11.4386 13.1404 13.2249 11.6207 15.5109C10.101 17.7969 9.2903 20.4808 9.2903 23.2258C9.2903 25.9708 10.101 28.6547 11.6207 30.9407C13.1404 33.2267 15.3014 35.0129 17.8325 36.0753C20.3636 37.1377 23.1521 37.4288 25.8481 36.9123C28.5441 36.3957 31.0275 35.0945 32.9866 33.1718L34.181 31.8232C34.5854 31.3665 35.0759 30.994 35.6243 30.7269C36.1727 30.4597 36.7683 30.3032 37.3772 30.2663C37.9861 30.2294 38.5963 30.3127 39.173 30.5116C39.7497 30.7105 40.2815 31.0211 40.7382 31.4255C41.1949 31.8299 41.5674 32.3204 41.8345 32.8688C42.1017 33.4172 42.2582 34.0129 42.2951 34.6217C42.332 35.2306 42.2486 35.8408 42.0498 36.4175C41.8509 36.9942 41.5403 37.526 41.1359 37.9827L39.8417 39.444C39.7795 39.5141 39.7153 39.5824 39.6489 39.6489C36.4008 42.8971 32.2623 45.1091 27.757 46.0053C23.2516 46.9015 18.5817 46.4415 14.3377 44.6836C10.0937 42.9257 6.46635 39.9488 3.91426 36.1294C1.36217 32.3099 0 27.8194 0 23.2258C0 18.6322 1.36217 14.1417 3.91426 10.3222C6.46635 6.50276 10.0937 3.52585 14.3377 1.76795C18.5817 0.0100525 23.2516 -0.449885 27.757 0.446299C32.2623 1.34248 36.4008 3.55454 39.6489 6.80274C39.7153 6.86908 39.7795 6.93738 39.8417 7.00763L63.0134 33.1718C64.9726 35.0945 67.456 36.3958 70.152 36.9123C72.848 37.4289 75.6365 37.1377 78.1676 36.0753C80.6987 35.0129 82.8597 33.2267 84.3794 30.9407C85.8991 28.6547 86.7098 25.9708 86.7098 23.2258C86.7098 20.4808 85.8991 17.7969 84.3794 15.5109C82.8597 13.2249 80.6987 11.4387 78.1676 10.3763C75.6365 9.31391 72.848 9.02273 70.152 9.53928C67.456 10.0558 64.9726 11.3571 63.0134 13.2798L61.8191 14.6284C61.0023 15.5506 59.8526 16.1107 58.6228 16.1852C57.3931 16.2598 56.1842 15.8429 55.2619 15.026C54.3396 14.2092 53.7796 13.0595 53.705 11.8298C53.6304 10.6001 54.0474 9.39112 54.8642 8.46885L56.1584 7.0076C56.2206 6.93747 56.2848 6.86917 56.3512 6.80271C59.5993 3.55454 63.7378 1.34252 68.2431 0.446355C72.7485 -0.449808 77.4184 0.0101406 81.6623 1.76804C85.9063 3.52594 89.5336 6.50283 92.0857 10.3223C94.6378 14.1417 96 18.6322 96 23.2258Z" fill="#F8FBFA"/>
</svg>
