<svg width="81" height="72" viewBox="0 0 81 72" fill="none" xmlns="http://www.w3.org/2000/svg">
<path fill-rule="evenodd" clip-rule="evenodd" d="M9 4.5C9 2.01474 6.98526 0 4.5 0C2.01474 0 0 2.01474 0 4.5V44.9991C0 44.9986 0 44.9995 0 44.9991V67.5C0 69.9854 2.01474 72 4.5 72H76.5C78.9854 72 81 69.9854 81 67.5C81 65.0146 78.9854 63 76.5 63H9V46.8639L27 28.8639L41.8181 43.6819C43.5753 45.4392 46.4247 45.4392 48.182 43.6819L72 19.8639V31.5C72 33.9854 74.0147 36 76.5 36C78.9854 36 81 33.9854 81 31.5V9C81 6.51474 78.9854 4.5 76.5 4.5H54C51.5147 4.5 49.5 6.51474 49.5 9C49.5 11.4853 51.5147 13.5 54 13.5H65.6361L45 34.1361L30.182 19.318C28.4246 17.5607 25.5754 17.5607 23.818 19.318L9 34.1361V4.5Z" fill="#F8FBFA"/>
</svg>
