<svg width="76" height="96" viewBox="0 0 76 96" fill="none" xmlns="http://www.w3.org/2000/svg">
<path d="M24.3726 68.6411L20.8261 65.0947L24.0027 61.9181C24.1224 61.7984 24.2458 61.6841 24.3726 61.5753V62.6319V68.6411ZM32.5649 76.8334L30.9422 75.2107H42.1462C41.8376 75.2793 41.5267 75.3398 41.2137 75.3919L32.5649 76.8334ZM37.8946 8.71904L47.0692 21.8257C50.778 27.1239 48.6792 34.4676 42.8493 36.9445C41.3334 37.5885 39.6625 37.9472 37.8948 37.9472C36.1269 37.9472 34.4561 37.5885 32.9405 36.9446C27.11 34.4673 25.0115 27.1235 28.7201 21.8258L28.7202 21.8257L37.8946 8.71904ZM7.07107 76.3504L7.1453 76.2761L19.7239 88.8547L19.6496 88.9289L7.07107 76.3504Z" fill="#F8FBFA" stroke="#F8FBFA" stroke-width="10"/>
</svg>
