<svg width="96" height="86" viewBox="0 0 96 86" fill="none" xmlns="http://www.w3.org/2000/svg">
<path d="M1.66051 39.4171C0.597985 36.2471 0 33.0631 0 29.911C0 1.66983 26.4008 -11.1674 48 11.9386C69.599 -11.1674 96 1.66892 96 29.9108C96 33.063 95.4019 36.2471 94.3397 39.4171L79.3157 39.4167C76.6963 39.4124 74.3698 39.4085 72.253 40.3469C70.1357 41.2853 68.5819 43.0096 66.8318 44.9512L66.4728 45.3497L61.5322 50.8136C61.1645 51.2202 60.864 51.5522 60.5986 51.8355C60.347 51.5422 60.0614 51.1982 59.7125 50.7768L42.6667 30.2107C41.9966 29.402 41.28 28.5368 40.5792 27.8946C39.7627 27.1468 38.556 26.3055 36.8686 26.2047C35.1814 26.1038 33.882 26.7952 32.9815 27.4404C32.2083 27.9944 31.3928 28.7681 30.6305 29.4912L23.2883 36.4516C21.0238 38.5982 20.5512 38.9642 20.057 39.1606C19.5627 39.3574 18.9672 39.4171 15.84 39.4171H1.66051Z" fill="#F8FBFA"/>
<path d="M4.82117 46.5838C11.4499 58.824 23.6654 70.3012 33.4163 78.2156C39.8098 83.4052 43.0066 86 48 86C52.9934 86 56.1902 83.4052 62.5838 78.2156C72.3346 70.3012 84.5501 58.824 91.1789 46.5838H79.8533C76.3771 46.5838 75.7181 46.6559 75.1819 46.8939C74.6462 47.1313 74.1509 47.5709 71.8243 50.1437L66.7613 55.7433C66.0034 56.5823 65.2027 57.4685 64.4328 58.1111C63.5443 58.8527 62.221 59.6845 60.4301 59.6463C58.6397 59.6076 57.3542 58.7208 56.4979 57.942C55.7568 57.2674 54.9955 56.3482 54.2755 55.4786L37.2234 34.905C36.8992 34.5142 36.6355 34.196 36.4027 33.9246C36.1391 34.1664 35.839 34.4506 35.4701 34.8004L27.9046 41.9728C26.196 43.5972 24.6799 45.0387 22.731 45.8151C20.7821 46.591 18.6855 46.5876 16.3226 46.5843L4.82117 46.5838Z" fill="#F8FBFA"/>
</svg>
